/* XPM */
static char *_5d6fff933554a14f3df661876138c95nqOdZDbM6ipF7FUh[] = {
/* columns rows colors chars-per-pixel */
"64 64 5 1 ",
"  c #004F78",
". c #006187",
"X c #0D7DBE",
"o c #04A2E4",
"O c #00CCF1",
/* pixels */
". X.     XX.. X.   XXX.. X.X...Xoo....XX   ..X...X......Xo      ",
".X      XX.X.. XX XXXXX  XXooXX..ooooXX.   ..X...o.....X.       ",
"o.   Xoo   X... XXX.  X.X...oo...oOo  X.   .XXXX.XXX.XX.        ",
".    oo     X..   X.. XX...X.X...X    .XX.XX .XXX.XXXX...XoXX..X",
".   .Oo    ..X.   o..X...XXX .XoXXXX... .XX  X.......oooX....Xoo",
"o   ..o   ...o.   OoXXXXoX.     ....XX.      X......ooXoooXXX..o",
"o    .X.  ....o  .o....Xoo.  ... ....X...   XX......Xo...       ",
"X..  ..XX.....o...X.....Oo. ....   ..X..    XXXXXX.o.....      .",
"X..  XXXXXXoo.ooXXX...X.  X....    ...X      ...XXX    ....    .",
"X.  ....X..oXXXXX.X..X..  .X..     ...X.     .XoX..     ...... .",
"X    ....oXo     o..X....   X.   .....X......XoX..      ...... .",
"X    ....Xo      XXX   ...  X.  .......XoXXXXX.oo..    .       X",
".XX .oooo...   ..XX.    .. .X..   ...  .X.......Xo....        .X",
"..XX...ooXoX......X   .... .o...   .   .Xo....XXooO...       .o.",
"XXXX...X.   X.....XX  . ...oX..        .ooXXoooooooooXX......oXX",
"....X.o.    XX..  ..X....XoX...       .XoXooX....o..XXoXXXXXXX..",
"  ...X..     oXXXXX  XXXooo..        .oX..  X.....o  X.XoX....o.",
"     X..    Xo    XXX.    oX.   .....XX...   X....o  XX..o....X.",
"     X...ooO       XXo    .X.    ...X.   ...  X...o  .X...o..oo.",
"    X...Xo.O..       XXoo..X.    ..XX    ...  .XXX  ...X...Xoo..",
"    X...oXXXo...   .....OO.XX.....XX.    ..  .oX..    .X....oO. ",
"   .XX..X   o.........XooOoXoXX...XoOoooX..  XX....    X.....X. ",
"   ..XoXo    oXoOoooXX.......XXoXoooo   X..  o..   ..  X.XXXXo. ",
"    .. Xo     .ooo........         Xo  .XXX..X.     .  .X....X. ",
"     .  o.     X.o..   ...     .....X..X..XX.X.    ....XX   ..X.",
"       XX..   ..Xo..      ...  .....XXoX.XXoXo..   ....X.    .X.",
".    XX..X.. ..  oo.          ...XXX...XX....Xo.   ..oX..    .oX",
"X  XX....o....... oo.......XooooXo......    ..oo  ..X......  .Xo",
"ooX......X.......  .XXXXXXX..Xo    ......    ..oOoXoX        XoO",
"....  ...X....       .X  XX.Xo      .....     .oo..    .....oo..",
"     ...X..          .X    XX       . ....    .Xo.        .XX...",
"    ...X.X           .X.  XX.         ....    ..X.        .X..  ",
".  ...X..Xo..       .X..XX..        ..oX...XXoXo.        .X..Xoo",
"o...XX...ooX.  .....X....o..       ..ooX...X.  XX       ..X.X  o",
"oXXoXXXXooXo...XXXXXX.   o..       .oo....X.    XXo     ..Xo.   ",
"X.... .XXX.XX.Xo   XX.   XX.       .oXoXXXX.      XX..XXXX..    ",
" o...    ....oX    XXX   oo..    ...o.....X..      XXXX         ",
"..X..........X     X  X.XoO....  ..Xo    ..X....   X.X....      ",
"..X....     .X.  .X...XXoooX..XX...XX     ..X..  .X..X....     .",
"..X..       X.....X...oX  oXXoX.XXX.X      .X..  .X...X..   ....",
"  X         X.....X...X.. o..X..  ..X  ... .X.    X...X   ......",
"  X. X ... X......o.XXX  ..XXXX.   XX...   .X     .X..o      .. ",
" XX...XXXXo..... ..oX     ..o.X.  X....  ..X      ..X.X      .. ",
" XoXXXX.X.o       .o.     ..o.XXXX     ...XooXoXXX  oOo       . ",
" XX....o..o        o.     ..o..X.     ....XX..XX  XX   oXoXX    ",
"oX   ..XoOo       XX.     .XX ..XXX ....oX....X         ....Xo  ",
"..   ..X.oX.      XX.ooooXXo. ..  XXXXooOoo...XX.      ...    oO",
".    ..X.o.X     X.XXXooX..X.  .    X....XooXX.ooXo.......    oo",
".    .XX.X XXXXXX.XXX..XX..X   .   X     ...X.    oooXX..   XXo.",
" ..  Xo...X. .....X....o...X  ....XX     ...X    .o..Xo....XXo..",
".....o.... X .....X...X  ..   ...oX     ....X    .XX..XX.XXX....",
"......o....X     X....X  XX  ....o. .. .....o....  X....X  XXX..",
"......X  ..X     o   .XXX.X   ..ooo        X...    oo..X     X. ",
"   ...X ...o     X    .X..X    Xo.oX..    Xo.      X.XX.     X .",
"     . XXXXoXoXX.X    .X...X   X...XX.   X.X      XXXoX.     XX.",
"         .X     Xo   . X..XX   X....X..XX...X   XX   OXX......X.",
"...      X     .Xoo..  X.X..XX.X...XXXXXX...XXXX.    X..X.....X.",
"XXX  o  XX    ....XXX.  XX....XX..X..   o...XX.XX    X...X...XXX",
"  XX.oXoX   .......X.Xo..X......XX..    X...X..  X...X..  X.XX  ",
"   XX..Oo.      .oX..XO.XX.....oo........o.X...   X...X.   XoX  ",
"   XX..XooX      XX.X.Xo. XX..oO.. ......oooXX.   X...XX   oo.  ",
"   o..  Xo.X   .XX.ooO.X.  .XoOo.     ...oo..XX  .X.....X .X..  ",
"   oo..  X..ooXX....Xo.X.  .oo.o..      .o. ..XXXXoXXoXX.XX.....",
".  X..   o.  XX..  ..X..X XX...XX..   ..o   ..X..oo....XooX.  .."
};
