/* XPM */
static char *_5d6fff933554a14f3df661876138c95nqOdZDbM6ipF7FUh[] = {
/* columns rows colors chars-per-pixel */
"64 64 5 1 ",
"  c #004F78",
". c #006187",
"X c #0D7DBE",
"o c #04A2E4",
"O c #00CCF1",
/* pixels */
"  XXX.. X.X...Xoo....XX   ..X...X......Xo      . X.     XX.. X. ",
" XXXXX  XXooXX..ooooXX.   ..X...o.....X.       .X      XX.X.. XX",
"XX.  X.X...oo...oOo  X.   .XXXX.XXX.XX.        o.   Xoo   X... X",
" X.. XX...X.X...X    .XX.XX .XXX.XXXX...XoXX..X.    oo     X..  ",
" o..X...XXX .XoXXXX... .XX  X.......oooX....Xoo.   .Oo    ..X.  ",
" OoXXXXoX.     ....XX.      X......ooXoooXXX..oo   ..o   ...o.  ",
".o....Xoo.  ... ....X...   XX......Xo...       o    .X.  ....o  ",
".X.....Oo. ....   ..X..    XXXXXX.o.....      .X..  ..XX.....o..",
"XX...X.  X....    ...X      ...XXX    ....    .X..  XXXXXXoo.ooX",
".X..X..  .X..     ...X.     .XoX..     ...... .X.  ....X..oXXXXX",
"o..X....   X.   .....X......XoX..      ...... .X    ....oXo     ",
"XXX   ...  X.  .......XoXXXXX.oo..    .       XX    ....Xo      ",
"XX.    .. .X..   ...  .X.......Xo....        .X.XX .oooo...   ..",
".X   .... .o...   .   .Xo....XXooO...       .o...XX...ooXoX.....",
".XX  . ...oX..        .ooXXoooooooooXX......oXXXXXX...X.   X....",
" ..X....XoX...       .XoXooX....o..XXoXXXXXXX......X.o.    XX.. ",
"XX  XXXooo..        .oX..  X.....o  X.XoX....o.  ...X..     oXXX",
" XXX.    oX.   .....XX...   X....o  XX..o....X.     X..    Xo   ",
"  XXo    .X.    ...X.   ...  X...o  .X...o..oo.     X...ooO     ",
"    XXoo..X.    ..XX    ...  .XXX  ...X...Xoo..    X...Xo.O..   ",
"  .....OO.XX.....XX.    ..  .oX..    .X....oO.     X...oXXXo... ",
".....XooOoXoXX...XoOoooX..  XX....    X.....X.    .XX..X   o....",
"oooXX.......XXoXoooo   X..  o..   ..  X.XXXXo.    ..XoXo    oXoO",
"o........         Xo  .XXX..X.     .  .X....X.     .. Xo     .oo",
"o..   ...     .....X..X..XX.X.    ....XX   ..X.     .  o.     X.",
"o..      ...  .....XXoX.XXoXo..   ....X.    .X.       XX..   ..X",
"oo.          ...XXX...XX....Xo.   ..oX..    .oX.    XX..X.. ..  ",
" oo.......XooooXo......    ..oo  ..X......  .XoX  XX....o.......",
"  .XXXXXXX..Xo    ......    ..oOoXoX        XoOooX......X.......",
"    .X  XX.Xo      .....     .oo..    .....oo......  ...X....   ",
"    .X    XX       . ....    .Xo.        .XX...     ...X..      ",
"    .X.  XX.         ....    ..X.        .X..      ...X.X       ",
"   .X..XX..        ..oX...XXoXo.        .X..Xoo.  ...X..Xo..    ",
"...X....o..       ..ooX...X.  XX       ..X.X  oo...XX...ooX.  ..",
"XXXX.   o..       .oo....X.    XXo     ..Xo.   oXXoXXXXooXo...XX",
"  XX.   XX.       .oXoXXXX.      XX..XXXX..    X.... .XXX.XX.Xo ",
"  XXX   oo..    ...o.....X..      XXXX          o...    ....oX  ",
"  X  X.XoO....  ..Xo    ..X....   X.X....      ..X..........X   ",
".X...XXoooX..XX...XX     ..X..  .X..X....     ...X....     .X.  ",
".X...oX  oXXoX.XXX.X      .X..  .X...X..   ......X..       X....",
".X...X.. o..X..  ..X  ... .X.    X...X   ......  X         X....",
".o.XXX  ..XXXX.   XX...   .X     .X..o      ..   X. X ... X.....",
"..oX     ..o.X.  X....  ..X      ..X.X      ..  XX...XXXXo..... ",
" .o.     ..o.XXXX     ...XooXoXXX  oOo       .  XoXXXX.X.o      ",
"  o.     ..o..X.     ....XX..XX  XX   oXoXX     XX....o..o      ",
" XX.     .XX ..XXX ....oX....X         ....Xo  oX   ..XoOo      ",
" XX.ooooXXo. ..  XXXXooOoo...XX.      ...    oO..   ..X.oX.     ",
"X.XXXooX..X.  .    X....XooXX.ooXo.......    oo.    ..X.o.X     ",
".XXX..XX..X   .   X     ...X.    oooXX..   XXo..    .XX.X XXXXXX",
".X....o...X  ....XX     ...X    .o..Xo....XXo.. ..  Xo...X. ....",
".X...X  ..   ...oX     ....X    .XX..XX.XXX.........o.... X ....",
"X....X  XX  ....o. .. .....o....  X....X  XXX........o....X     ",
"o   .XXX.X   ..ooo        X...    oo..X     X. ......X  ..X     ",
"X    .X..X    Xo.oX..    Xo.      X.XX.     X .   ...X ...o     ",
"X    .X...X   X...XX.   X.X      XXXoX.     XX.     . XXXXoXoXX.",
"o   . X..XX   X....X..XX...X   XX   OXX......X.         .X     X",
"oo..  X.X..XX.X...XXXXXX...XXXX.    X..X.....X....      X     .X",
".XXX.  XX....XX..X..   o...XX.XX    X...X...XXXXXX  o  XX    ...",
"..X.Xo..X......XX..    X...X..  X...X..  X.XX    XX.oXoX   .....",
"oX..XO.XX.....oo........o.X...   X...X.   XoX     XX..Oo.      .",
"XX.X.Xo. XX..oO.. ......oooXX.   X...XX   oo.     XX..XooX      ",
"X.ooO.X.  .XoOo.     ...oo..XX  .X.....X .X..     o..  Xo.X   .X",
"...Xo.X.  .oo.o..      .o. ..XXXXoXXoXX.XX.....   oo..  X..ooXX.",
"  ..X..X XX...XX..   ..o   ..X..oo....XooX.  ...  X..   o.  XX.."
};
