/* XPM */
static char *_5d6fff933554a14f3df661876138c95nqOdZDbM6ipF7FUh[] = {
/* columns rows colors chars-per-pixel */
"64 64 5 1 ",
"  c #004F78",
". c #006187",
"X c #0D7DBE",
"o c #04A2E4",
"O c #00CCF1",
/* pixels */
"X......Xo      . X.     XX.. X.   XXX.. X.X...Xoo....XX   ..X...",
"o.....X.       .X      XX.X.. XX XXXXX  XXooXX..ooooXX.   ..X...",
"XXX.XX.        o.   Xoo   X... XXX.  X.X...oo...oOo  X.   .XXXX.",
".XXXX...XoXX..X.    oo     X..   X.. XX...X.X...X    .XX.XX .XXX",
"....oooX....Xoo.   .Oo    ..X.   o..X...XXX .XoXXXX... .XX  X...",
"...ooXoooXXX..oo   ..o   ...o.   OoXXXXoX.     ....XX.      X...",
"...Xo...       o    .X.  ....o  .o....Xoo.  ... ....X...   XX...",
"X.o.....      .X..  ..XX.....o...X.....Oo. ....   ..X..    XXXXX",
"XX    ....    .X..  XXXXXXoo.ooXXX...X.  X....    ...X      ...X",
"..     ...... .X.  ....X..oXXXXX.X..X..  .X..     ...X.     .XoX",
".      ...... .X    ....oXo     o..X....   X.   .....X......XoX.",
"..    .       XX    ....Xo      XXX   ...  X.  .......XoXXXXX.oo",
"o....        .X.XX .oooo...   ..XX.    .. .X..   ...  .X.......X",
"oO...       .o...XX...ooXoX......X   .... .o...   .   .Xo....XXo",
"ooooXX......oXXXXXX...X.   X.....XX  . ...oX..        .ooXXooooo",
"o..XXoXXXXXXX......X.o.    XX..  ..X....XoX...       .XoXooX....",
".o  X.XoX....o.  ...X..     oXXXXX  XXXooo..        .oX..  X....",
".o  XX..o....X.     X..    Xo    XXX.    oX.   .....XX...   X...",
".o  .X...o..oo.     X...ooO       XXo    .X.    ...X.   ...  X..",
"X  ...X...Xoo..    X...Xo.O..       XXoo..X.    ..XX    ...  .XX",
".    .X....oO.     X...oXXXo...   .....OO.XX.....XX.    ..  .oX.",
"..    X.....X.    .XX..X   o.........XooOoXoXX...XoOoooX..  XX..",
"  ..  X.XXXXo.    ..XoXo    oXoOoooXX.......XXoXoooo   X..  o.. ",
"   .  .X....X.     .. Xo     .ooo........         Xo  .XXX..X.  ",
"  ....XX   ..X.     .  o.     X.o..   ...     .....X..X..XX.X.  ",
"  ....X.    .X.       XX..   ..Xo..      ...  .....XXoX.XXoXo.. ",
"  ..oX..    .oX.    XX..X.. ..  oo.          ...XXX...XX....Xo. ",
" ..X......  .XoX  XX....o....... oo.......XooooXo......    ..oo ",
"oXoX        XoOooX......X.......  .XXXXXXX..Xo    ......    ..oO",
"..    .....oo......  ...X....       .X  XX.Xo      .....     .oo",
".        .XX...     ...X..          .X    XX       . ....    .Xo",
".        .X..      ...X.X           .X.  XX.         ....    ..X",
"        .X..Xoo.  ...X..Xo..       .X..XX..        ..oX...XXoXo.",
"       ..X.X  oo...XX...ooX.  .....X....o..       ..ooX...X.  XX",
"Xo     ..Xo.   oXXoXXXXooXo...XXXXXX.   o..       .oo....X.    X",
" XX..XXXX..    X.... .XXX.XX.Xo   XX.   XX.       .oXoXXXX.     ",
"  XXXX          o...    ....oX    XXX   oo..    ...o.....X..    ",
"  X.X....      ..X..........X     X  X.XoO....  ..Xo    ..X.... ",
".X..X....     ...X....     .X.  .X...XXoooX..XX...XX     ..X..  ",
".X...X..   ......X..       X.....X...oX  oXXoX.XXX.X      .X..  ",
" X...X   ......  X         X.....X...X.. o..X..  ..X  ... .X.   ",
" .X..o      ..   X. X ... X......o.XXX  ..XXXX.   XX...   .X    ",
" ..X.X      ..  XX...XXXXo..... ..oX     ..o.X.  X....  ..X     ",
"X  oOo       .  XoXXXX.X.o       .o.     ..o.XXXX     ...XooXoXX",
" XX   oXoXX     XX....o..o        o.     ..o..X.     ....XX..XX ",
"       ....Xo  oX   ..XoOo       XX.     .XX ..XXX ....oX....X  ",
"      ...    oO..   ..X.oX.      XX.ooooXXo. ..  XXXXooOoo...XX.",
"Xo.......    oo.    ..X.o.X     X.XXXooX..X.  .    X....XooXX.oo",
" oooXX..   XXo..    .XX.X XXXXXX.XXX..XX..X   .   X     ...X.   ",
".o..Xo....XXo.. ..  Xo...X. .....X....o...X  ....XX     ...X    ",
".XX..XX.XXX.........o.... X .....X...X  ..   ...oX     ....X    ",
"  X....X  XXX........o....X     X....X  XX  ....o. .. .....o....",
"  oo..X     X. ......X  ..X     o   .XXX.X   ..ooo        X...  ",
"  X.XX.     X .   ...X ...o     X    .X..X    Xo.oX..    Xo.    ",
" XXXoX.     XX.     . XXXXoXoXX.X    .X...X   X...XX.   X.X     ",
"X   OXX......X.         .X     Xo   . X..XX   X....X..XX...X   X",
"    X..X.....X....      X     .Xoo..  X.X..XX.X...XXXXXX...XXXX.",
"    X...X...XXXXXX  o  XX    ....XXX.  XX....XX..X..   o...XX.XX",
"X...X..  X.XX    XX.oXoX   .......X.Xo..X......XX..    X...X..  ",
" X...X.   XoX     XX..Oo.      .oX..XO.XX.....oo........o.X...  ",
" X...XX   oo.     XX..XooX      XX.X.Xo. XX..oO.. ......oooXX.  ",
".X.....X .X..     o..  Xo.X   .XX.ooO.X.  .XoOo.     ...oo..XX  ",
"XoXXoXX.XX.....   oo..  X..ooXX....Xo.X.  .oo.o..      .o. ..XXX",
"oo....XooX.  ...  X..   o.  XX..  ..X..X XX...XX..   ..o   ..X.."
};
